<svg xmlns="http://www.w3.org/2000/svg" width="180.249" height="180.249" viewBox="0 0 180.249 180.249">
  <g id="Group_7356" data-name="Group 7356" transform="translate(1514.147 -2453.342)">
    <rect id="Rectangle_17474" data-name="Rectangle 17474" width="180.249" height="180.249" rx="30" transform="translate(-1514.147 2453.342)" fill="#f4f4f4"/>
    <path id="Rectangle_17475" data-name="Rectangle 17475" d="M0,0H180.249V13.612a30,30,0,0,1-30,30H30a30,30,0,0,1-30-30Z" transform="translate(-1514.147 2589.979)" fill="#dd4a48"/>
    <g id="Group_7354" data-name="Group 7354" transform="translate(-1478.76 2462.058)">
      <path id="eRestro" d="M5.468-10.287v-.2H9.437a4.2,4.2,0,0,0,2.18-.527,3.316,3.316,0,0,0,1.343-1.573,6.475,6.475,0,0,0,.459-2.6,6.525,6.525,0,0,0-.459-2.606,3.351,3.351,0,0,0-1.343-1.586,4.153,4.153,0,0,0-2.18-.533H.608v-.338H9.842a12.236,12.236,0,0,1,3.793.533,5.255,5.255,0,0,1,2.538,1.654,4.433,4.433,0,0,1,.9,2.876,4.45,4.45,0,0,1-.851,2.835,4.819,4.819,0,0,1-2.471,1.573,13.574,13.574,0,0,1-3.915.493ZM.608,0V-.338H9.774V0ZM3.416-.176V-20.048H6.953V-.176ZM16.457.176a3.983,3.983,0,0,1-2.025-.432,2.626,2.626,0,0,1-1.073-1.175,5.182,5.182,0,0,1-.439-1.661q-.095-.918-.108-1.9t-.095-1.9a5.481,5.481,0,0,0-.391-1.661A2.486,2.486,0,0,0,11.32-9.72a3.668,3.668,0,0,0-1.937-.432H5.468v-.189h5.427a7.089,7.089,0,0,1,3.038.54,3.872,3.872,0,0,1,1.674,1.438A5.457,5.457,0,0,1,16.342-6.4a13.174,13.174,0,0,1,.189,2.14q.007,1.073.041,1.971a3.717,3.717,0,0,0,.29,1.438.962.962,0,0,0,.958.54,3.192,3.192,0,0,0,.79-.095,3.208,3.208,0,0,0,.641-.229l.122.311a4.4,4.4,0,0,1-1.094.338A8.952,8.952,0,0,1,16.457.176ZM27.419.27a6.958,6.958,0,0,1-3.287-.763,5.67,5.67,0,0,1-2.3-2.207,6.849,6.849,0,0,1-.844-3.51,7.078,7.078,0,0,1,.81-3.51,5.5,5.5,0,0,1,2.234-2.207,6.8,6.8,0,0,1,3.26-.763,5.913,5.913,0,0,1,3.247.8,4.885,4.885,0,0,1,1.843,2.092,6.518,6.518,0,0,1,.594,2.761H22.8v-.338H29.43q0-.8-.061-1.667a7.8,7.8,0,0,0-.277-1.62,3.063,3.063,0,0,0-.641-1.222,1.475,1.475,0,0,0-1.154-.472,1.861,1.861,0,0,0-1.323.493,3.281,3.281,0,0,0-.823,1.343A8.859,8.859,0,0,0,24.732-8.6a19.683,19.683,0,0,0-.122,2.228A19,19,0,0,0,24.752-4a7.719,7.719,0,0,0,.5,1.991,3.294,3.294,0,0,0,.992,1.364,2.54,2.54,0,0,0,1.62.5,4.733,4.733,0,0,0,3.1-1.019,5.488,5.488,0,0,0,1.755-2.558h.364A5.814,5.814,0,0,1,31.165-.871,5.745,5.745,0,0,1,27.419.27Zm7.911,0V-3.821h.351a4.868,4.868,0,0,0,.925,1.937,4.724,4.724,0,0,0,1.62,1.316A4.6,4.6,0,0,0,40.3-.095a4.528,4.528,0,0,0,1.478-.229,2.407,2.407,0,0,0,1.073-.7,1.781,1.781,0,0,0,.4-1.2,1.518,1.518,0,0,0-.547-1.235A4.578,4.578,0,0,0,41.3-4.219q-.864-.3-1.836-.621a11.393,11.393,0,0,1-1.843-.783A4,4,0,0,1,36.2-6.872a3.513,3.513,0,0,1-.547-2.052,3.762,3.762,0,0,1,.466-1.836,3.6,3.6,0,0,1,1.35-1.377,4.167,4.167,0,0,1,2.167-.526,4.544,4.544,0,0,1,1.715.311,5,5,0,0,1,1.35.8l1.337-1.134h.3v3.78H44a4.837,4.837,0,0,0-.8-1.64,4.5,4.5,0,0,0-1.465-1.269,4.227,4.227,0,0,0-2.079-.493,3.2,3.2,0,0,0-1.229.223,2.085,2.085,0,0,0-.857.621,1.461,1.461,0,0,0-.317.938,1.415,1.415,0,0,0,.574,1.175,5.337,5.337,0,0,0,1.478.769q.9.324,1.91.655a11.844,11.844,0,0,1,1.91.817,4.356,4.356,0,0,1,1.472,1.255,3.261,3.261,0,0,1,.567,1.985A3.79,3.79,0,0,1,44.5-1.627,4.191,4.191,0,0,1,42.775-.216,5.546,5.546,0,0,1,40.46.27a5.315,5.315,0,0,1-1.89-.331A5.163,5.163,0,0,1,37-.986L35.627.27ZM51.516.189A3.128,3.128,0,0,1,49.66-.27a2.253,2.253,0,0,1-.85-1.2,5.567,5.567,0,0,1-.223-1.607V-15.12a7.254,7.254,0,0,0,1.728-.23,5.47,5.47,0,0,0,1.512-.581V-2.389a2.868,2.868,0,0,0,.243,1.4.865.865,0,0,0,.8.392,1.983,1.983,0,0,0,1.309-.594A4.221,4.221,0,0,0,55.229-2.7l.3.148A4.8,4.8,0,0,1,54.02-.574,3.989,3.989,0,0,1,51.516.189ZM46.683-12.083v-.337h8.033v.337ZM61.344-5.859a15.461,15.461,0,0,1,.2-2.531,8.191,8.191,0,0,1,.662-2.187,4.1,4.1,0,0,1,1.2-1.532,2.915,2.915,0,0,1,1.822-.567,2.824,2.824,0,0,1,1.458.358,2.4,2.4,0,0,1,.918.932,2.529,2.529,0,0,1,.311,1.222,2.1,2.1,0,0,1-.54,1.444,1.806,1.806,0,0,1-1.418.608,1.989,1.989,0,0,1-1.451-.533,1.735,1.735,0,0,1-.547-1.289,1.857,1.857,0,0,1,.58-1.438,2,2,0,0,1,1.4-.533,2.007,2.007,0,0,1,1,.25,1.916,1.916,0,0,1,.7.641,1.551,1.551,0,0,1,.25.851h-.324a2.088,2.088,0,0,0-.29-1.066,2.174,2.174,0,0,0-.824-.8,2.508,2.508,0,0,0-1.262-.3,2.591,2.591,0,0,0-1.62.526,4,4,0,0,0-1.141,1.445,7.99,7.99,0,0,0-.668,2.086,13.3,13.3,0,0,0-.216,2.423Zm.2-6.561V-.338h1.944V0H56.565V-.338h1.769V-12.083H56.565v-.337ZM76.059.27a6.367,6.367,0,0,1-3.422-.891,6.119,6.119,0,0,1-2.221-2.363,6.761,6.761,0,0,1-.783-3.226,6.761,6.761,0,0,1,.783-3.227A6.119,6.119,0,0,1,72.637-11.8a6.367,6.367,0,0,1,3.422-.891,6.367,6.367,0,0,1,3.422.891A6.119,6.119,0,0,1,81.7-9.437a6.761,6.761,0,0,1,.783,3.227A6.761,6.761,0,0,1,81.7-2.984,6.119,6.119,0,0,1,79.481-.621,6.367,6.367,0,0,1,76.059.27Zm0-.338a2.034,2.034,0,0,0,1.451-.54,3.507,3.507,0,0,0,.884-1.431,9.071,9.071,0,0,0,.432-1.985,19.789,19.789,0,0,0,.121-2.187A19.729,19.729,0,0,0,78.826-8.4a9.066,9.066,0,0,0-.432-1.978,3.507,3.507,0,0,0-.884-1.431,2.034,2.034,0,0,0-1.451-.54,2,2,0,0,0-1.451.54,3.646,3.646,0,0,0-.878,1.431A8.806,8.806,0,0,0,73.292-8.4,19.729,19.729,0,0,0,73.17-6.21a19.789,19.789,0,0,0,.122,2.187,8.811,8.811,0,0,0,.439,1.985,3.646,3.646,0,0,0,.878,1.431A2,2,0,0,0,76.059-.068Z" transform="translate(9.078 121.17)" fill="#2c272e"/>
      <g id="Group_7353" data-name="Group 7353">
        <g id="Group_7346" data-name="Group 7346">
          <g id="Group_7345" data-name="Group 7345">
            <g id="Group_7344" data-name="Group 7344">
              <g id="Group_7327" data-name="Group 7327" transform="translate(7.749 28.658)">
                <g id="Group_7321" data-name="Group 7321" transform="translate(6.427 41.434)">
                  <path id="Path_13267" data-name="Path 13267" d="M-1445.36,2574.88a12.247,12.247,0,0,0,12.242,12.245,12.247,12.247,0,0,0,12.248-12.246,12.245,12.245,0,0,0-12.246-12.246,12.245,12.245,0,0,0-12.244,12.245Z" transform="translate(1445.36 -2562.635)" fill="#2c272e"/>
                  <path id="Path_13268" data-name="Path 13268" d="M-1440.6,2576.21a8.817,8.817,0,0,0,8.814,8.816,8.817,8.817,0,0,0,8.818-8.817,8.817,8.817,0,0,0-8.816-8.816,8.816,8.816,0,0,0-8.816,8.817Z" transform="translate(1444.034 -2563.961)" fill="#3a393a"/>
                  <path id="Path_13269" data-name="Path 13269" d="M-1438.57,2576.77a7.35,7.35,0,0,0,7.348,7.348,7.349,7.349,0,0,0,7.349-7.348,7.35,7.35,0,0,0-7.349-7.348A7.351,7.351,0,0,0-1438.57,2576.77Z" transform="translate(1443.466 -2564.53)" fill="#d0d2d3"/>
                </g>
                <g id="Group_7322" data-name="Group 7322" transform="translate(75.529 41.434)">
                  <path id="Path_13270" data-name="Path 13270" d="M-1349.53,2574.88a12.247,12.247,0,0,0,12.242,12.245,12.246,12.246,0,0,0,12.248-12.247,12.245,12.245,0,0,0-12.245-12.245,12.246,12.246,0,0,0-12.245,12.245Z" transform="translate(1349.527 -2562.635)" fill="#2c272e"/>
                  <path id="Path_13271" data-name="Path 13271" d="M-1344.77,2576.21a8.817,8.817,0,0,0,8.814,8.816,8.817,8.817,0,0,0,8.818-8.817,8.817,8.817,0,0,0-8.816-8.816,8.816,8.816,0,0,0-8.816,8.817Z" transform="translate(1348.201 -2563.961)" fill="#3a393a"/>
                  <path id="Path_13272" data-name="Path 13272" d="M-1342.74,2576.77a7.35,7.35,0,0,0,7.348,7.348,7.349,7.349,0,0,0,7.348-7.347,7.35,7.35,0,0,0-7.347-7.349,7.35,7.35,0,0,0-7.349,7.347Z" transform="translate(1347.633 -2564.53)" fill="#d0d2d3"/>
                </g>
                <g id="Group_7323" data-name="Group 7323" transform="translate(79.717 32.795)">
                  <path id="Path_13273" data-name="Path 13273" d="M-1343.72,2551.04s19.177-4.287,21.434,15.568h-17.373Z" transform="translate(1343.719 -2550.654)" fill="#2c272e"/>
                  <path id="Path_13274" data-name="Path 13274" d="M-1339.04,2564.54l-3.549-13.6c-.707.094-1.126.186-1.126.186l4.061,15.568h17.373c-.086-.754-.2-1.463-.336-2.149Z" transform="translate(1343.719 -2550.733)" fill="#be1e2d"/>
                </g>
                <path id="Path_13275" data-name="Path 13275" d="M-1369.03,2556.4a5.72,5.72,0,0,1-.648.5c-4.154,2.785-10.4,1.958-15.165,1.958h-69.333c-1.427-19.74,13.318-25.448,13.318-25.448l27.35,1.2c-10.94,20.225-.476,19.254-.476,19.254h30.68s11.229-2.211-4.564-21.164c0,0-3.385-3.384,2.031-6.317,0,0-12.86-20.983,8.348-21.208,0,0,2.027-.168,2.059,5.353.03,5.051-2.022,5.47-2.059,5.477-1.036.2-2.055-.231-2.977.6-1.948,1.753.213,4.7,1.371,6.223a59.87,59.87,0,0,1,4.964,7.846,63.394,63.394,0,0,1,6.661,18.309C-1366.97,2551.62-1366.95,2554.52-1369.03,2556.4Z" transform="translate(1454.273 -2505.173)" fill="#dd4a48"/>
                <path id="Path_13276" data-name="Path 13276" d="M-1352.51,2505.17c-21.208.226-8.348,21.209-8.348,21.209-5.415,2.933-2.031,6.317-2.031,6.317,15.794,18.953,4.564,21.164,4.564,21.164l-2.388,2.532s18.089-3.427.862-23.7c0,0-3.385-3.384,2.031-6.317,0,0-10.9-17.786,3.928-20.782Z" transform="translate(1429.294 -2505.174)" fill="#d63930"/>
                <path id="Path_13277" data-name="Path 13277" d="M-1434.18,2544.46l-6.675-.121s-14.745,5.708-13.318,25.448h4.4C-1451.14,2550.44-1436.21,2545.37-1434.18,2544.46Z" transform="translate(1454.273 -2516.096)" fill="#d63930"/>
                <path id="Path_13278" data-name="Path 13278" d="M-1350.86,2568.02c.009-.031.019-.062.027-.092A.882.882,0,0,1-1350.86,2568.02Z" transform="translate(1425.428 -2522.677)" fill="#0a263f"/>
                <g id="Group_7324" data-name="Group 7324" transform="translate(35.868 44.706)">
                  <path id="Path_13279" data-name="Path 13279" d="M-1396.98,2573.74h24.769a8.1,8.1,0,0,0,6.544-6.562,5.03,5.03,0,0,1-3.757,3.984h-30.68a4.137,4.137,0,0,1-4.422-3.806,6.909,6.909,0,0,0,2.429,4.781,6.909,6.909,0,0,0,5.117,1.6Z" transform="translate(1404.53 -2567.173)" fill="#3a393a"/>
                  <path id="Path_13280" data-name="Path 13280" d="M-1368.02,2570.64a8.076,8.076,0,0,1-4.2,2.148h-24.769a7.3,7.3,0,0,1-5.978-2.421,4.365,4.365,0,0,1-1.568-2.948,6.91,6.91,0,0,0,2.429,4.781,6.909,6.909,0,0,0,5.116,1.6h24.769a8.067,8.067,0,0,0,6.385-5.927A4.847,4.847,0,0,1-1368.02,2570.64Z" transform="translate(1404.53 -2567.242)" fill="#2c272e"/>
                </g>
                <path id="Path_13281" data-name="Path 13281" d="M-1440.75,2548.1l25.946-.051c.4-.8.823-1.635,1.3-2.52l-27.35-1.2s-14.056,5.452-13.384,24.094C-1453.6,2551.86-1440.75,2548.1-1440.75,2548.1Z" transform="translate(1454.27 -2516.096)" fill="#be1e2d"/>
                <g id="Group_7325" data-name="Group 7325" transform="translate(58.833 4.751)">
                  <circle id="Ellipse_231" data-name="Ellipse 231" cx="2.338" cy="2.338" r="2.338" transform="translate(7.04 1.175)" fill="#d63930"/>
                  <circle id="Ellipse_232" data-name="Ellipse 232" cx="2.338" cy="2.338" r="2.338" transform="translate(7.122 0)" fill="#d0d2d3"/>
                  <path id="Path_13282" data-name="Path 13282" d="M-1363.98,2513.43l-8.382,5.685a1.69,1.69,0,0,0,.146,2.114c.948.947,2.186-.292,2.186-.292l7.58-5.466S-1362.02,2513.5-1363.98,2513.43Z" transform="translate(1372.681 -2512.227)" fill="#ee4036"/>
                  <path id="Path_13283" data-name="Path 13283" d="M-1369.87,2519.88s-1.239,1.239-2.186.291a1.553,1.553,0,0,1-.383-.6,1.629,1.629,0,0,0,.22,1.987c.948.948,2.186-.291,2.186-.291l7.58-5.466a2.226,2.226,0,0,0-.1-1.2Z" transform="translate(1372.681 -2512.553)" fill="#be1e2d"/>
                </g>
                <ellipse id="Ellipse_233" data-name="Ellipse 233" cx="1.547" cy="4.676" rx="1.547" ry="4.676" transform="translate(75.221 0.718)" fill="#bbbdbf"/>
                <g id="Group_7326" data-name="Group 7326" transform="translate(7.729 25.084)">
                  <path id="Path_13284" data-name="Path 13284" d="M-1409.6,2539.96h-31.775a2.182,2.182,0,0,0-2.176,2.176,2.183,2.183,0,0,0,2.176,2.176h31.775a2.183,2.183,0,0,0,2.177-2.176A2.183,2.183,0,0,0-1409.6,2539.96Z" transform="translate(1443.554 -2539.961)" fill="#3a393a"/>
                  <path id="Path_13285" data-name="Path 13285" d="M-1408,2540.95a2.147,2.147,0,0,1-2.139,2.086h-30.7a2.147,2.147,0,0,1-2.139-2.086,2.165,2.165,0,0,0-.573,1.464h0a2.182,2.182,0,0,0,2.176,2.176h31.776a2.183,2.183,0,0,0,2.176-2.176h0a2.164,2.164,0,0,0-.572-1.464Z" transform="translate(1443.554 -2540.237)" fill="#2c272e"/>
                </g>
                <path id="Path_13286" data-name="Path 13286" d="M-1412.41,2571.73c-1.391-25-20.887-20-20.887-20,17.816-.55,19.3,14.16,19.2,20Z" transform="translate(1448.423 -2518.048)" fill="#be1e2d"/>
                <path id="Path_13287" data-name="Path 13287" d="M-1354.31,2535.86s13.426,17.591,7.4,25.059C-1346.92,2560.92-1341.85,2554.68-1354.31,2535.86Z" transform="translate(1426.391 -2513.733)" fill="#be1e2d"/>
                <path id="Path_13288" data-name="Path 13288" d="M-1352.64,2510.64c0-2.508.66-4.61,1.552-5.213-1.082.177-1.939,2.44-1.939,5.213s.857,5.037,1.939,5.214C-1351.98,2515.25-1352.64,2513.15-1352.64,2510.64Z" transform="translate(1426.031 -2505.243)" fill="#be1e2d"/>
                <path id="Path_13289" data-name="Path 13289" d="M-1338.69,2564.15q-.436-2.319-1.07-4.6c.609,10.9-7.121,13.808-11.345,14.585,3.622.048,7.394-.181,10.207-2.068a5.728,5.728,0,0,0,.648-.5C-1338.17,2569.69-1338.2,2566.79-1338.69,2564.15Z" transform="translate(1425.497 -2520.341)" fill="#d63930"/>
              </g>
              <g id="Group_7341" data-name="Group 7341" transform="translate(33.438)">
                <g id="Group_7328" data-name="Group 7328" transform="translate(10.125 2.761)">
                  <path id="Path_13290" data-name="Path 13290" d="M-1402.71,2484.38a6.1,6.1,0,0,1-1.436-3.437l-.431-4.974a6.165,6.165,0,0,1,5.595-6.655l.334-.029a6.167,6.167,0,0,1,6.656,5.595l.43,4.974a6.1,6.1,0,0,1-.1,1.749l-2.092.252s-.187.978,1.434,1.521c0,0-.83,2.217-4.613,2.442,0,0-2.15-.484-2.88,3.089l-3.367-.941S-1401.97,2485.77-1402.71,2484.38Z" transform="translate(1404.605 -2469.259)" fill="#fdd5a9"/>
                  <path id="Path_13291" data-name="Path 13291" d="M-1397.53,2485.98c-1.048-1.625.468-3.719,1.117-5.207.146-.335,1.573-4.73,1.164-4.674l-9.351,1.286a4.508,4.508,0,0,0,.018.491l.431,4.974a6.1,6.1,0,0,0,1.436,3.437c.749,1.4-.472,3.586-.472,3.586l3.367.941c.73-3.573,2.88-3.089,2.88-3.089a6.327,6.327,0,0,0,3.5-1.124C-1394.61,2487.08-1396.52,2487.54-1397.53,2485.98Z" transform="translate(1404.603 -2471.166)" fill="#fdcb94"/>
                  <path id="Path_13292" data-name="Path 13292" d="M-1387.33,2479.33l.857,1.323,1.03,1.587c.119.184.374.45.339.685-.041.268-.409.262-.614.287l-.944.114-1.208.146Z" transform="translate(1399.937 -2472.067)" fill="#fdd5a9"/>
                </g>
                <g id="Group_7334" data-name="Group 7334" transform="translate(28.407 74.099)">
                  <g id="Group_7329" data-name="Group 7329">
                    <path id="Path_13293" data-name="Path 13293" d="M-1377.76,2568.5s-.965.176-1.14,3.333h12.454s1.535-3.772-2.456-2.894c0,0-3.467.7-3.686-.746Z" transform="translate(1379.151 -2568.192)" fill="#be1e2d"/>
                    <path id="Path_13294" data-name="Path 13294" d="M-1366.17,2570.81c-2.32.258-13.118,1.291-8.7-2.358h-.839l-2.038.119s-.965.176-1.14,3.333h12.454a4.658,4.658,0,0,0,.268-1.094Z" transform="translate(1379.151 -2568.264)" fill="#dd4a48"/>
                    <rect id="Rectangle_17476" data-name="Rectangle 17476" width="12.943" height="0.431" rx="0.215" transform="translate(0 3.485)" fill="#3a393a"/>
                  </g>
                  <g id="Group_7333" data-name="Group 7333" transform="translate(6.545 0.495)">
                    <g id="Group_7330" data-name="Group 7330">
                      <circle id="Ellipse_234" data-name="Ellipse 234" cx="0.321" cy="0.321" r="0.321" transform="translate(0 0.703)" fill="#ee4036"/>
                      <path id="Path_13295" data-name="Path 13295" d="M-1369.78,2570.04a.149.149,0,0,1-.082-.024.149.149,0,0,1-.043-.206l.563-.863a.15.15,0,0,1,.206-.043.147.147,0,0,1,.064.094.149.149,0,0,1-.021.112l-.564.863a.148.148,0,0,1-.123.068Z" transform="translate(1370.105 -2568.879)" fill="#0a263f"/>
                    </g>
                    <g id="Group_7331" data-name="Group 7331" transform="translate(0.925 0.167)">
                      <circle id="Ellipse_235" data-name="Ellipse 235" cx="0.321" cy="0.321" r="0.321" transform="translate(0 0.703)" fill="#ee4036"/>
                      <path id="Path_13296" data-name="Path 13296" d="M-1368.5,2570.27a.146.146,0,0,1-.082-.024.15.15,0,0,1-.043-.207l.563-.863a.15.15,0,0,1,.206-.043.149.149,0,0,1,.043.2l-.564.863a.148.148,0,0,1-.123.068Z" transform="translate(1368.822 -2569.11)" fill="#0a263f"/>
                    </g>
                    <g id="Group_7332" data-name="Group 7332" transform="translate(1.887 0.167)">
                      <circle id="Ellipse_236" data-name="Ellipse 236" cx="0.321" cy="0.321" r="0.321" transform="translate(0 0.703)" fill="#ee4036"/>
                      <path id="Path_13297" data-name="Path 13297" d="M-1367.16,2570.27a.152.152,0,0,1-.081-.024.15.15,0,0,1-.043-.206l.563-.863a.149.149,0,0,1,.206-.043.149.149,0,0,1,.043.205l-.563.863A.149.149,0,0,1-1367.16,2570.27Z" transform="translate(1367.488 -2569.11)" fill="#0a263f"/>
                    </g>
                  </g>
                </g>
                <g id="Group_7335" data-name="Group 7335" transform="translate(0 45.013)">
                  <path id="Path_13298" data-name="Path 13298" d="M-1406.75,2527.85h-11.788s-1.419,7.643,5.839,8.723h11.546s16.883-1.477,11.986,20.913h5.828S-1375.41,2531.61-1406.75,2527.85Z" transform="translate(1418.647 -2527.855)" fill="#3a393a"/>
                  <path id="Path_13299" data-name="Path 13299" d="M-1418.53,2527.85s-1.419,7.643,5.839,8.723h11.546s16.883-1.477,11.986,20.913h2.8c5.707-23.134-13.747-23.406-13.747-23.406-11.683.081-8.9-6.229-8.9-6.229Z" transform="translate(1418.647 -2527.855)" fill="#2c272e"/>
                </g>
                <g id="Group_7336" data-name="Group 7336" transform="translate(0.099 20.901)">
                  <path id="Path_13300" data-name="Path 13300" d="M-1406.85,2518.53h-11.65c-.145,0,.9-8.124,1.064-8.941a28.515,28.515,0,0,1,3.969-10.666,10.982,10.982,0,0,1,4.509-4.01,5.224,5.224,0,0,1,6.2,1.319c.84.93.736,2.455.446,3.58a21.094,21.094,0,0,1-1.78,3.674S-1406.7,2507.99-1406.85,2518.53Z" transform="translate(1418.509 -2494.416)" fill="#be1e2d"/>
                  <path id="Path_13301" data-name="Path 13301" d="M-1411.7,2504.36c1.865-8.935,6.6-8.939,8.536-8.536a5.2,5.2,0,0,0-5.792-.914,10.979,10.979,0,0,0-4.509,4.01,28.509,28.509,0,0,0-3.969,10.666c-.159.818-1.209,8.941-1.065,8.941h9.52C-1414.74,2514.04-1411.7,2504.36-1411.7,2504.36Z" transform="translate(1418.51 -2494.416)" fill="#a81826"/>
                </g>
                <g id="Group_7338" data-name="Group 7338" transform="translate(11.771 23.378)">
                  <g id="Group_7337" data-name="Group 7337" transform="translate(21.845 11.662)">
                    <path id="Path_13302" data-name="Path 13302" d="M-1372.03,2515.43c-.089-.2,2.77-1.186,2.97-1.234,1.736-.416,3.579-.148,4.476,1.57a2.582,2.582,0,0,1-1.09,3.427,1.286,1.286,0,0,1-1.412.155,1.286,1.286,0,0,1-.693-1.24s-.041-1.532-1.271-1.113l-2.005.621Z" transform="translate(1372.027 -2514.024)" fill="#3a393a"/>
                    <path id="Path_13303" data-name="Path 13303" d="M-1364.58,2516.12c-.01-.017-.02-.032-.029-.048a3.917,3.917,0,0,0-.15.462,1.555,1.555,0,0,1-.8.951,1.223,1.223,0,0,1-1.216-.1c-.268-.2-.439-.524-.736-.679-.485-.255-1.064.034-1.609.089a1.883,1.883,0,0,1-1.383-.426,1.884,1.884,0,0,1-.626-1.064c-.522.213-.928.407-.893.485l.974,2.185,2.005-.62c1.23-.42,1.271,1.113,1.271,1.113a1.286,1.286,0,0,0,.693,1.24,1.286,1.286,0,0,0,1.412-.155,2.582,2.582,0,0,0,1.087-3.433Z" transform="translate(1372.027 -2514.381)" fill="#2c272e"/>
                  </g>
                  <path id="Path_13304" data-name="Path 13304" d="M-1398,2498.68s2.575,16.58,17.814,11.48l1.426,3.266s-16.138,8.244-22.929-12.237Z" transform="translate(1402.145 -2498.082)" fill="#3a393a"/>
                  <path id="Path_13305" data-name="Path 13305" d="M-1379.08,2513.56c-2.234.964-12.361,4.587-19.143-5.428l2.585-2.2q-.257-.437-.478-.87l-2.635,2.256a28.852,28.852,0,0,1-2.571-5.506l-.367.25c6.791,20.481,22.929,12.237,22.929,12.237Z" transform="translate(1402.145 -2498.956)" fill="#2c272e"/>
                  <path id="Path_13306" data-name="Path 13306" d="M-1399.85,2507.67l4.435-3.611-1.372-2.905c-.49-1.038-.828-2.749-2.041-3.194a2.92,2.92,0,0,0-2.712.654c-1.612,1.692-.347,3.964.349,5.7Z" transform="translate(1402.322 -2497.851)" fill="#be1e2d"/>
                  <path id="Path_13307" data-name="Path 13307" d="M-1399.88,2504.19c-.7-1.74-1.961-4.013-.349-5.7a2.519,2.519,0,0,1,1.045-.606,3,3,0,0,0-2.351.741c-1.612,1.692-.347,3.964.349,5.7l1.34,3.351,1.027-.835Z" transform="translate(1402.322 -2497.851)" fill="#a81826"/>
                </g>
                <g id="Group_7340" data-name="Group 7340" transform="translate(5.617)">
                  <g id="Group_7339" data-name="Group 7339">
                    <path id="Path_13308" data-name="Path 13308" d="M-1402.19,2465.44a10.8,10.8,0,0,1,7.79,2.708,8.3,8.3,0,0,1,1.527,2.042,15.434,15.434,0,0,1,.979,2.787l-6.291,1.154c-.015,0-.333,3.332-.366,3.572a5.229,5.229,0,0,1-2.178,3.794c-2.369,1.6-5.122.863-7.081-1.01-3.515-3.359-4.607-10.536.053-13.464a11.189,11.189,0,0,1,5.567-1.583Z" transform="translate(1410.857 -2465.429)" fill="#2c272e"/>
                    <path id="Path_13309" data-name="Path 13309" d="M-1398.18,2474.22h0c-.053.258-.906,4.1-4.806,4.209-4.035.115-5.409-6.26-5.409-6.26s-1.013-4.09,4.323-6.456a10.48,10.48,0,0,0-3.678,1.385c-4.66,2.928-3.568,10.1-.053,13.464,1.959,1.873,4.712,2.608,7.081,1.01a5.229,5.229,0,0,0,2.178-3.793C-1398.52,2477.54-1398.22,2474.45-1398.18,2474.22Z" transform="translate(1410.857 -2465.508)" fill="#3a393a"/>
                    <path id="Path_13310" data-name="Path 13310" d="M-1393.28,2477.04s15.7.2,6.291-1.155Z" transform="translate(1405.953 -2468.347)" fill="#2c272e"/>
                    <path id="Path_13311" data-name="Path 13311" d="M-1403.66,2468.09c-3.848-.392-5.851,1.4-6.521,2.166a6.367,6.367,0,0,1,2.619-3.24,11.189,11.189,0,0,1,5.567-1.583,10.8,10.8,0,0,1,7.79,2.707,8.315,8.315,0,0,1,1.527,2.043,15.44,15.44,0,0,1,.979,2.787l-6.272,1.151h-.02S-1398.8,2468.59-1403.66,2468.09Z" transform="translate(1410.669 -2465.429)" fill="#dd4a48"/>
                    <path id="Path_13312" data-name="Path 13312" d="M-1403.89,2465.71a10.48,10.48,0,0,0-3.678,1.385,6.366,6.366,0,0,0-2.619,3.24,6.415,6.415,0,0,1,2.729-1.785A7.781,7.781,0,0,1-1403.89,2465.71Z" transform="translate(1410.669 -2465.508)" fill="#d63930"/>
                  </g>
                </g>
              </g>
              <g id="Group_7343" data-name="Group 7343" transform="translate(0 22.776)">
                <g id="Group_7342" data-name="Group 7342">
                  <rect id="Rectangle_17477" data-name="Rectangle 17477" width="30.956" height="30.956" rx="4.47" fill="#3a393a"/>
                  <path id="Path_13313" data-name="Path 13313" d="M-1437.48,2497.1a4.652,4.652,0,0,1,1.413,3.334v21.62a4.682,4.682,0,0,1-4.668,4.668h-21.619a4.682,4.682,0,0,1-.708-.06,4.65,4.65,0,0,0,3.256,1.333h21.619a4.682,4.682,0,0,0,4.669-4.668v-21.619A4.682,4.682,0,0,0-1437.48,2497.1Z" transform="translate(1464.473 -2497.039)" fill="#2c272e"/>
                </g>
              </g>
            </g>
          </g>
        </g>
        <g id="Artboard_1" data-name="Artboard 1" transform="translate(1.563 27.661)">
          <g id="Group_7352" data-name="Group 7352">
            <g id="Group_7351" data-name="Group 7351">
              <g id="Group_7350" data-name="Group 7350">
                <circle id="Ellipse_237" data-name="Ellipse 237" cx="10.203" cy="10.203" r="10.203" transform="translate(4.946 0)" fill="#dd4a48"/>
                <g id="Group_7349" data-name="Group 7349" transform="translate(0 1.598)">
                  <g id="Group_7347" data-name="Group 7347" transform="translate(9.93 0.261)">
                    <path id="Path_13314" data-name="Path 13314" d="M-1447.72,2508.04a.9.9,0,0,1-.683.1.9.9,0,0,1-.553-.412.9.9,0,0,1-.1-.683.9.9,0,0,1,.413-.553.9.9,0,0,1,.683-.1.9.9,0,0,1,.553.413.9.9,0,0,1,.1.682.9.9,0,0,1-.412.553Zm-.725-1.217a.515.515,0,0,0-.178.706.514.514,0,0,0,.705.178.515.515,0,0,0,.179-.7.516.516,0,0,0-.7-.172Z" transform="translate(1449.081 -2506.369)" fill="#fff"/>
                  </g>
                  <g id="Group_7348" data-name="Group 7348" transform="translate(6.57)">
                    <path id="Path_13315" data-name="Path 13315" d="M-1437.47,2510.85a.2.2,0,0,1-.08.254c-.641.383-1.262.758-1.889,1.124-.529.31-1.066.609-1.6.911l-2.733,1.558-5.224,2.972c-.761.433-1.523.87-2.277,1.315l-.718-1.2q2.47-1.548,4.932-3.109,2.773-1.75,5.55-3.494c.31-.2.627-.378.975-.583a.2.2,0,0,0,.1-.147.2.2,0,0,0-.057-.167c-.195-.2-.362-.37-.545-.526a6.351,6.351,0,0,0-7.26-.7,6.326,6.326,0,0,0-3.122,6.616.432.432,0,0,1-.247.552c-.477.26-.941.548-1.434.846a.2.2,0,0,1-.18.017.2.2,0,0,1-.12-.134,8.337,8.337,0,0,1,.012-4.78,8.3,8.3,0,0,1,4.467-5.291,8.532,8.532,0,0,1,6.553-.4A8.532,8.532,0,0,1-1437.47,2510.85Z" transform="translate(1453.741 -2506.006)" fill="#fff"/>
                    <path id="Path_13316" data-name="Path 13316" d="M-1435.97,2516.92a.2.2,0,0,1,.192-.005.2.2,0,0,1,.108.159,8.475,8.475,0,0,1-4.685,8.217,8.525,8.525,0,0,1-9.9-1.6.2.2,0,0,1-.057-.161.2.2,0,0,1,.089-.146h0c.5-.3,1.006-.593,1.5-.9a.325.325,0,0,1,.443.025,6.144,6.144,0,0,0,6.719.888,6.091,6.091,0,0,0,3.655-5.046.553.553,0,0,1,.3-.467C-1437.05,2517.58-1436.52,2517.25-1435.97,2516.92Z" transform="translate(1452.782 -2509.043)" fill="#fff"/>
                  </g>
                  <path id="Path_13317" data-name="Path 13317" d="M-1450.03,2517.42a5.394,5.394,0,0,1,.091-3.041,5.5,5.5,0,0,1,1.743-2.687,8.57,8.57,0,0,0-1.517,2.744,8.747,8.747,0,0,0-.317,2.984Z" transform="translate(1459.323 -2507.592)" fill="#fff"/>
                  <path id="Path_13318" data-name="Path 13318" d="M-1436.83,2511.44a4.217,4.217,0,0,0-1.193-1.006,4.183,4.183,0,0,0-1.406-.581,14.759,14.759,0,0,1,1.357.7,14.161,14.161,0,0,1,1.242.887Z" transform="translate(1456.318 -2507.079)" fill="#fff"/>
                  <path id="Path_13319" data-name="Path 13319" d="M-1452.84,2520.86l.754,1.266c-.384.236-.726.415-.9.519-.948.561-.826.663-.994,1.3a2.108,2.108,0,0,1-.875,1.454,30.972,30.972,0,0,1-4.866,2.465c-2.008.933-1.665.705-1.4.548s4.911-2.915,5.13-3.113-.094-.583-.309-.5-.382.167-1.437.7-4.082,2.283-4.108,2.213,5.035-3.251,5.272-3.405a.2.2,0,0,0,.113-.15.2.2,0,0,0-.061-.178v-.007a.208.208,0,0,0-.134-.138.209.209,0,0,0-.19.031c-.246.138-5.419,3.138-5.47,3.084s2.9-1.921,3.864-2.6,1.1-.795,1.283-.945-.031-.6-.308-.5-4.888,2.923-5.15,3.081-.624.355,1.134-.981a30.88,30.88,0,0,1,4.443-3.146,2.831,2.831,0,0,1,1.917-.055c.524.065.595.065,1.376-.358C-1453.58,2521.34-1453.23,2521.09-1452.84,2520.86Z" transform="translate(1462.853 -2510.149)" fill="#fff"/>
                </g>
              </g>
            </g>
          </g>
        </g>
      </g>
      <path id="Path_1002" data-name="Path 1002" d="M7.587.27A6.958,6.958,0,0,1,4.3-.493,5.67,5.67,0,0,1,2-2.7a6.849,6.849,0,0,1-.844-3.51,7.078,7.078,0,0,1,.81-3.51,5.5,5.5,0,0,1,2.234-2.207,6.8,6.8,0,0,1,3.26-.763,5.913,5.913,0,0,1,3.247.8,4.885,4.885,0,0,1,1.843,2.092,6.518,6.518,0,0,1,.594,2.761H2.97v-.338H9.6q0-.8-.061-1.667a7.8,7.8,0,0,0-.277-1.62A3.063,3.063,0,0,0,8.62-11.88a1.475,1.475,0,0,0-1.154-.472,1.861,1.861,0,0,0-1.323.493,3.281,3.281,0,0,0-.824,1.343A8.859,8.859,0,0,0,4.9-8.6a19.683,19.683,0,0,0-.122,2.228A19,19,0,0,0,4.921-4a7.719,7.719,0,0,0,.5,1.991A3.294,3.294,0,0,0,6.413-.648a2.54,2.54,0,0,0,1.62.5,4.733,4.733,0,0,0,3.105-1.019,5.488,5.488,0,0,0,1.755-2.558h.365A5.814,5.814,0,0,1,11.333-.871,5.745,5.745,0,0,1,7.587.27Z" transform="translate(-5.387 121.284)" fill="#dd4a48"/>
    </g>
    <path id="RIDER_APP" data-name="RIDER APP" d="M8.44,0,5.38-5.34H4.6V0H1.18V-14.14H7.02a6.3,6.3,0,0,1,2.84.58,4.005,4.005,0,0,1,1.74,1.59,4.555,4.555,0,0,1,.58,2.31,4.106,4.106,0,0,1-.85,2.62A4.345,4.345,0,0,1,8.86-5.56L12.22,0ZM4.6-7.68H6.72a2.135,2.135,0,0,0,1.5-.45A1.737,1.737,0,0,0,8.7-9.46a1.763,1.763,0,0,0-.49-1.32,2.053,2.053,0,0,0-1.49-.48H4.6Zm12.72-6.46V0H13.9V-14.14ZM32.4-7.1a7.5,7.5,0,0,1-.89,3.69A6.234,6.234,0,0,1,28.95-.9a8.164,8.164,0,0,1-3.93.9H19.68V-14.14h5.34a8.3,8.3,0,0,1,3.94.88,6.139,6.139,0,0,1,2.55,2.48A7.443,7.443,0,0,1,32.4-7.1ZM24.72-3.06a4.322,4.322,0,0,0,3.11-1.06A3.925,3.925,0,0,0,28.94-7.1a3.925,3.925,0,0,0-1.11-2.98,4.322,4.322,0,0,0-3.11-1.06H23.1v8.08Zm13.04-8.36v2.96h4.78v2.58H37.76v3.14h5.38V0h-8.8V-14.14h8.8v2.72ZM52.34,0,49.28-5.34H48.5V0H45.08V-14.14h5.84a6.3,6.3,0,0,1,2.84.58,4.005,4.005,0,0,1,1.74,1.59,4.555,4.555,0,0,1,.58,2.31,4.106,4.106,0,0,1-.85,2.62,4.345,4.345,0,0,1-2.47,1.48L56.12,0ZM48.5-7.68h2.12a2.135,2.135,0,0,0,1.5-.45,1.737,1.737,0,0,0,.48-1.33,1.763,1.763,0,0,0-.49-1.32,2.053,2.053,0,0,0-1.49-.48H48.5Zm22.06,5.1h-5.3L64.38,0h-3.6l5.18-14.04H69.9L75.08,0H71.44Zm-.88-2.6-1.76-5.2-1.78,5.2Zm10.14.22V0H76.4V-14.14h5.54a5.38,5.38,0,0,1,3.84,1.25A4.421,4.421,0,0,1,87.1-9.52a4.643,4.643,0,0,1-.59,2.35,4.091,4.091,0,0,1-1.75,1.62,6.165,6.165,0,0,1-2.82.59ZM81.56-7.7q2.06,0,2.06-1.82,0-1.86-2.06-1.86H79.82V-7.7ZM92.2-4.96V0H88.78V-14.14h5.54a5.38,5.38,0,0,1,3.84,1.25,4.421,4.421,0,0,1,1.32,3.37,4.643,4.643,0,0,1-.59,2.35,4.091,4.091,0,0,1-1.75,1.62,6.165,6.165,0,0,1-2.82.59ZM93.94-7.7Q96-7.7,96-9.52q0-1.86-2.06-1.86H92.2V-7.7Z" transform="translate(-1474.147 2615.315)" fill="#fff"/>
  </g>
</svg>
