<svg width="512" height="509" viewBox="0 0 512 509" fill="none" xmlns="http://www.w3.org/2000/svg">
<g clip-path="url(#clip0_1744_50)">
<path d="M0 473.21C0.27 470.42 0.72 467.64 0.79 464.84C1.95 422.05 3.06 379.25 4.18 336.45C4.22 334.95 4.26 333.45 4.32 331.95C4.86 317.61 6.58 315.91 20.9 316.28C43.38 316.85 65.85 317.53 88.32 318.19C95.79 318.41 99.1 321.92 99.09 329.5C99.09 333.96 99.09 338.42 99.09 343.15C106.3 340.43 113.1 337.37 120.19 335.26C153.02 325.53 184.77 328.68 214.98 344.7C228.07 351.64 241.62 355.53 256.46 355.71C275.61 355.93 294.75 357.13 313.9 357.11C339.29 357.09 359.03 366.8 372.51 389.16C373.96 388.56 375.45 388 376.89 387.33C398.55 377.11 420.59 367.61 441.75 356.45C469.42 341.86 497.69 350.13 512 375.19V381.19C509.36 383.63 507.01 386.51 504.04 388.44C451.4 422.63 398.76 456.81 345.96 490.76C317.27 509.21 285.86 512.78 253.41 504.42C215.57 494.67 178.07 483.58 140.46 472.96C130.95 470.28 122.05 471.34 113.45 476.04C108.78 478.6 104.15 481.26 99.32 483.49C96.05 485 94.71 486.93 94.7 490.67C94.68 500.37 91.36 503.38 81.49 503.12C58.51 502.53 35.53 501.72 12.54 501.28C6.82 501.2 2.53 499.54 0 494.22C0 487.22 0 480.22 0 473.21ZM359.54 408.95C359.12 407.46 358.78 405.86 358.24 404.33C352.4 387.67 337.51 377.01 318.87 376.41C300.55 375.82 282.23 375.55 263.91 374.99C256.26 374.76 248.59 374.42 240.97 373.64C226.25 372.12 213.61 364.82 200.41 358.86C166.6 343.61 133.49 345.73 101.4 364.34C98.98 365.74 98.02 367.37 97.96 370.25C97.3 399.74 96.47 429.22 95.7 458.71C95.66 460.13 95.7 461.55 95.7 463.81C98.23 462.53 100.01 461.75 101.68 460.75C116.56 451.85 132.16 450.44 148.76 455.33C172.53 462.33 196.42 468.95 220.32 475.47C237.31 480.1 254.2 485.74 271.53 488.34C294.09 491.73 315.93 487.67 335.59 474.89C375.1 449.22 414.7 423.68 454.26 398.08C465.56 390.77 476.84 383.42 488.19 376.04C480.02 367.67 467.54 365.71 456.08 371.07C433.32 381.71 410.74 392.74 387.86 403.09C381.58 405.93 378.27 408.49 379.56 416.34C381.04 425.34 376.53 429.31 367.48 429.11C355.15 428.84 342.83 428.46 330.51 428.12C306.53 427.46 282.54 426.81 258.56 426.12C252.23 425.94 248.47 423.1 247.63 418C246.58 411.63 251.12 406.93 258.53 407.11C280.85 407.65 303.16 408.41 325.48 408.89C336.61 409.13 347.75 408.93 359.54 408.93V408.95ZM19.32 482.94H75.87C77.21 434.48 78.55 385.92 79.89 337.06C60.75 336.53 42.33 336.02 23.36 335.5C22.01 384.55 20.68 433.09 19.32 482.93V482.94Z" fill="black"/>
<path d="M253.009 15.0199C263.279 15.8699 271.439 13.1399 279.319 8.62988C299.509 -2.92012 319.919 -2.85012 340.079 8.64988C347.989 13.1599 356.139 15.3999 365.269 15.2499C389.129 14.8699 407.339 24.8299 419.169 45.7999C423.139 52.8299 428.699 58.0999 435.839 61.8199C457.399 73.0399 468.219 90.7699 467.729 115.16C467.569 123.09 469.599 130.2 473.809 136.91C486.689 157.4 486.659 178.01 473.759 198.47C469.529 205.18 467.569 212.31 467.719 220.23C468.189 244.39 457.509 262.07 436.179 273.28C428.729 277.2 423.039 282.7 418.859 290.02C407.339 310.16 389.679 320.14 366.649 320.03C356.659 319.98 347.799 322.27 339.089 327.16C319.559 338.12 299.639 338.08 280.099 327.08C271.729 322.37 263.179 319.94 253.509 320.05C230.089 320.33 212.079 310.45 200.369 289.9C196.099 282.41 190.149 277.05 182.569 272.98C161.779 261.82 151.089 244.49 151.709 220.61C151.909 212.74 150.019 205.47 145.769 198.79C132.519 178 132.529 157.19 145.819 136.42C150.089 129.75 151.899 122.46 151.709 114.59C151.139 90.9499 161.619 73.6699 182.229 62.5399C189.769 58.4699 195.909 53.2599 200.159 45.7399C211.989 24.7499 230.349 15.1599 252.999 15.0399L253.009 15.0199ZM255.599 34.2199C237.799 33.5199 224.469 40.5699 215.849 56.5299C210.479 66.4699 202.249 73.6999 192.169 78.7799C177.429 86.1999 170.259 98.0599 170.749 114.62C171.089 126.07 168.329 136.77 162.009 146.38C152.659 160.59 152.609 174.66 161.969 188.88C168.189 198.33 171.139 208.87 170.709 220.14C170.059 236.97 177.289 248.94 192.119 256.5C202.819 261.96 210.989 269.95 216.899 280.41C224.929 294.62 237.259 301.61 253.539 301.05C266.249 300.62 277.829 303.67 288.759 310.14C302.539 318.3 316.659 318.32 330.469 310.18C341.399 303.74 352.969 300.65 365.699 301.03C382.109 301.52 394.639 294.62 402.669 280.07C408.399 269.69 416.609 261.93 427.139 256.55C441.969 248.98 449.289 236.93 448.699 220.22C448.299 208.89 451.099 198.4 457.289 188.94C466.589 174.72 466.639 160.66 457.319 146.42C451.429 137.42 448.239 127.44 448.739 116.65C449.569 98.6599 441.919 86.0099 425.899 78.0199C416.109 73.1399 408.429 65.7599 403.219 56.1399C394.779 40.5599 381.689 33.5899 364.259 34.2499C352.599 34.6899 341.799 31.8299 331.849 25.8499C317.029 16.9499 302.299 16.9199 287.489 25.8299C277.689 31.7299 267.069 34.6399 255.579 34.2199H255.599Z" fill="black"/>
<path d="M255.029 267.5C246.479 267.68 241.849 260.84 244.569 254.33C245.209 252.81 246.169 251.41 247.049 250C283.429 191.69 319.819 133.39 356.209 75.0896C357.089 73.6796 357.919 72.2096 358.989 70.9496C362.059 67.3496 367.259 66.5996 371.209 69.0696C375.019 71.4396 376.659 76.1296 375.019 80.3896C374.429 81.9296 373.529 83.3596 372.649 84.7596C336.099 143.35 299.519 201.93 262.979 260.53C260.699 264.18 258.309 267.51 255.029 267.5Z" fill="black"/>
<path d="M403.07 218.98C402.87 229.76 398.15 242.55 387.25 252.65C372.04 266.75 349.99 266.68 334.77 252.61C315.25 234.58 313.57 201.44 331.15 181.48C349.06 161.14 378.11 162.81 393.77 185.06C399.82 193.65 403.05 204.11 403.06 218.98H403.07ZM384.09 215.32C383.93 206.42 381.41 198.33 374.71 192.01C366.5 184.26 355.56 184.34 347.34 192.05C334.9 203.7 334.93 226.84 347.4 238.41C355.79 246.19 367.02 246.09 375.13 238.02C381.37 231.82 383.86 224.05 384.09 215.32Z" fill="black"/>
<path d="M300.27 120.33C300.14 134.06 295.77 146.17 286.06 156.04C270.38 171.96 247.1 172.15 231.05 156.63C210.89 137.13 211.39 101.52 232.09 82.5997C250 66.2197 276.44 69.4398 290.89 89.8298C297.35 98.9397 300.42 109.16 300.28 120.34L300.27 120.33ZM281.2 120.26C281.32 112.13 279 104.8 273.65 98.6198C265.35 89.0198 252.67 88.6798 243.8 97.6898C232.38 109.29 232.45 131.18 243.93 142.67C252.59 151.33 264.75 151.18 273.1 142.18C278.8 136.03 281.21 128.57 281.2 120.26Z" fill="black"/>
</g>
<defs>
<clipPath id="clip0_1744_50">
<rect width="512" height="508.71" fill="white"/>
</clipPath>
</defs>
</svg>
