<svg width="499" height="377" viewBox="0 0 499 377" fill="none" xmlns="http://www.w3.org/2000/svg">
<g clip-path="url(#clip0_1746_6625)">
<path d="M48.5 377C21.79 376.97 0.03 355.21 0 328.49V48.5C0.03 21.79 21.79 0.03 48.51 0H450.5C477.21 0.03 498.97 21.79 499 48.51V328.5C498.97 355.21 477.21 376.97 450.49 377H48.5ZM31.17 357.92L44.18 359.7C45.6 359.89 47.05 360 48.48 360H450.5C451.96 360 453.4 359.89 454.82 359.7L467.83 357.92L309.75 200.5L255.49 254.53C253.89 256.12 251.76 257 249.5 257C247.24 257 245.11 256.12 243.5 254.53L189.25 200.5L31.17 357.92ZM321.8 188.5L479.75 345.8L481.66 333.09C481.89 331.57 482 330.03 482 328.49V48.5C482 46.97 481.89 45.42 481.66 43.9L479.75 31.19L321.8 188.49V188.5ZM17.34 43.9C17.11 45.42 17 46.97 17 48.5V328.49C17 330.02 17.11 331.57 17.34 333.09L19.25 345.8L177.2 188.5L19.25 31.2L17.34 43.91V43.9ZM48.48 17C47.05 17 45.6 17.11 44.18 17.3L31.17 19.08L249.5 236.5L467.83 19.08L454.82 17.3C453.4 17.11 451.95 17 450.52 17H48.48Z" fill="black"/>
</g>
<defs>
<clipPath id="clip0_1746_6625">
<rect width="499" height="377" fill="white"/>
</clipPath>
</defs>
</svg>
