<svg width="492" height="493" viewBox="0 0 492 493" fill="none" xmlns="http://www.w3.org/2000/svg">
<g clip-path="url(#clip0_1745_70)">
<path d="M466.07 232.07C466.07 237.58 461.58 242.07 456.07 242.07C450.56 242.07 446.07 237.58 446.07 232.07C446.07 179.43 425.57 129.94 388.35 92.72C351.13 55.5 301.64 35 249 35C243.49 35 239 30.51 239 25C239 19.49 243.49 15 249 15C306.98 15 361.49 37.58 402.49 78.58C443.49 119.58 466.07 174.09 466.07 232.07Z" fill="#FB7361"/>
<path d="M402.04 226.04C402.04 231.55 397.56 236.04 392.04 236.04C386.52 236.04 382.04 231.55 382.04 226.04C382.04 162.05 329.99 110 266 110C260.49 110 256 105.51 256 100C256 94.49 260.49 90 266 90C341.01 90 402.04 151.03 402.04 226.04Z" fill="#FB7361"/>
<path d="M328.95 218.12C328.95 223.63 324.46 228.12 318.95 228.12C313.44 228.12 308.95 223.63 308.95 218.12C308.95 198.81 293.24 183.1 273.93 183.1C268.42 183.1 263.93 178.62 263.93 173.1C263.93 167.58 268.42 163.1 273.93 163.1C304.27 163.1 328.95 187.78 328.95 218.12Z" fill="#FB7361"/>
<path d="M470.501 335.15L389.791 288.56C383.271 284.8 375.871 282.81 368.391 282.81C353.081 282.81 338.801 291.03 331.141 304.26C325.931 313.29 316.601 324.71 301.821 327.76C298.711 328.47 295.521 328.83 292.331 328.83C282.791 328.83 273.411 325.59 265.971 319.75C234.971 296.47 195.581 257.07 172.361 226.15C164.361 215.96 161.421 202.87 164.281 190.31C167.351 175.46 178.761 166.13 187.781 160.92C208.251 149.07 215.301 122.76 203.511 102.27L156.871 21.51C149.311 8.24 135.121 0 119.851 0C114.441 0 109.131 1.03 104.031 3.06L103.061 3.44C68.1507 17.15 38.4207 29.32 28.2507 39.5C10.7607 56.98 1.30065 79.55 0.120653 106.59C-0.919347 130.66 4.66065 157.99 16.7207 187.82C38.6307 242.02 80.7907 301.97 135.441 356.61C190.091 411.27 250.041 453.43 304.231 475.34C331.671 486.43 357.071 492.05 379.711 492.05C381.631 492.05 383.571 492.01 385.471 491.93C412.501 490.75 435.071 481.29 452.561 463.8C462.721 453.63 474.901 423.91 488.611 389L489.011 387.97C496.841 368.34 488.891 345.64 470.501 335.15ZM470.371 380.71L469.991 381.69C455.591 418.37 445.301 442.52 438.491 449.58L438.411 449.66C423.581 464.5 403.771 472.02 379.531 472.02C359.531 472.02 336.721 466.89 311.721 456.79C260.711 436.17 201.611 394.5 149.581 342.47C97.5507 290.44 55.8807 231.34 35.2607 180.32C19.5607 141.48 8.05066 87.98 42.4007 53.62L42.5107 53.52C49.5307 46.74 73.6807 36.46 110.371 22.06L111.311 21.69C114.041 20.61 116.911 20.05 119.851 20.04H119.911C128.101 20.07 135.651 24.5 139.581 31.55L186.191 112.28C192.481 123.22 188.721 137.26 177.791 143.59C159.961 153.88 148.191 169.1 144.641 186.5C140.721 204.55 144.951 223.32 156.261 238.03C180.931 270.91 221.151 311.12 254.111 335.85C264.991 344.22 278.551 348.83 292.281 348.83C296.721 348.83 301.211 348.35 305.661 347.38C322.971 343.84 338.171 332.07 348.481 314.21C352.591 307.18 360.201 302.81 368.351 302.81C372.331 302.81 376.271 303.87 379.771 305.86L460.351 352.38C470.401 357.97 474.701 370.18 470.371 380.71Z" fill="#FB7361"/>
</g>
<defs>
<clipPath id="clip0_1745_70">
<rect width="492.01" height="492.05" fill="white"/>
</clipPath>
</defs>
</svg>
