<svg width="497" height="512" viewBox="0 0 497 512" fill="none" xmlns="http://www.w3.org/2000/svg">
<g clip-path="url(#clip0_1745_80)">
<path d="M97.2792 0C104.969 3.51 108.069 9.72 109.449 17.89C114.109 45.45 119.339 72.91 124.439 100.83H318.239C321.559 131.53 334.859 156.43 359.639 174.49C384.459 192.57 412.219 197.66 442.999 191.18C441.639 198.31 440.399 205.07 439.059 211.8C435.129 231.55 431.149 251.28 427.229 271.03C424.859 282.96 419.939 287 407.629 287C326.639 287 245.639 287 164.649 287H158.289C161.609 305.25 164.849 323.04 168.169 341.25H174.899C247.229 341.25 319.559 341.22 391.879 341.35C394.999 341.35 398.659 342.13 401.109 343.89C404.859 346.57 404.749 367.12 401.039 369.85C398.869 371.45 395.569 372.14 392.769 372.15C358.939 372.3 325.109 372.25 291.279 372.25C247.119 372.25 202.949 372.25 158.789 372.25C146.169 372.25 141.469 368.13 139.229 355.79C127.079 288.82 114.859 221.87 102.669 154.91C95.5192 115.62 88.3992 76.32 81.2592 37.02C80.9092 35.09 80.4492 33.19 79.9792 31C62.1292 31 44.4792 31 26.8292 31C20.6592 31 14.4992 31.1 8.32916 30.97C3.11916 30.86 0.319162 28.09 0.139162 22.93C-0.000838414 18.76 0.329162 14.58 0.0391616 10.43C-0.280838 5.8 1.24916 2.34 5.25916 0H97.2792Z" fill="black"/>
<path d="M163.289 512C154.509 509.56 145.889 506.91 138.399 501.28C117.809 485.83 110.629 458.42 121.319 435.18C132.229 411.47 158.029 398.92 183.429 404.96C208.079 410.82 225.799 433.68 225.049 458.64C224.249 484.98 205.769 506.53 180.099 511.1C179.139 511.27 178.219 511.69 177.289 512H163.289ZM170.509 480.96C183.229 481.06 193.759 470.79 194.029 458.02C194.299 445.21 183.589 434.4 170.669 434.44C157.939 434.48 147.449 444.92 147.399 457.62C147.349 470.29 157.819 480.86 170.509 480.96Z" fill="black"/>
<path d="M350.331 512C338.771 509.55 328.161 505.28 319.441 496.92C302.321 480.51 297.781 454.99 308.341 433.55C318.851 412.22 342.161 400.35 366.071 404.15C388.801 407.77 407.081 426.43 410.501 449.5C414.821 478.65 395.931 505.36 367.031 511.02C366.101 511.2 365.231 511.66 364.331 511.99H350.331V512ZM356.781 480.96C369.511 481.04 380.061 470.7 380.241 457.98C380.421 445.13 369.731 434.37 356.841 434.44C344.091 434.51 333.641 444.96 333.611 457.67C333.581 470.33 344.091 480.89 356.771 480.97L356.781 480.96Z" fill="black"/>
<path d="M419.001 15.5705C461.891 15.5105 496.511 50.1406 496.491 93.0806C496.471 135.981 461.821 170.711 419.001 170.731C376.331 170.761 341.371 135.781 341.381 93.0806C341.391 50.2705 376.091 15.6305 419.001 15.5605V15.5705ZM434.451 85.2505C434.451 74.7005 434.511 65.0605 434.431 55.4205C434.381 49.5605 431.781 46.8505 425.961 46.6305C421.301 46.4605 416.631 46.4605 411.971 46.6305C406.421 46.8405 403.531 49.5805 403.491 54.9905C403.361 70.3105 403.291 85.6406 403.521 100.971C403.651 109.701 410.161 116.051 418.821 116.191C428.981 116.361 439.151 116.311 449.311 116.211C454.871 116.151 457.511 113.511 457.721 107.901C457.891 103.411 457.861 98.9006 457.741 94.4106C457.571 88.0306 454.911 85.4205 448.451 85.2705C443.991 85.1705 439.531 85.2505 434.461 85.2505H434.451Z" fill="black"/>
</g>
<defs>
<clipPath id="clip0_1745_80">
<rect width="496.5" height="512" fill="white"/>
</clipPath>
</defs>
</svg>
