<svg width="385" height="512" viewBox="0 0 385 512" fill="none" xmlns="http://www.w3.org/2000/svg">
<g clip-path="url(#clip0_1745_76)">
<path d="M188.91 512C162.22 486.63 137.72 459.23 114.46 430.73C84.8203 394.42 57.7503 356.34 35.9903 314.7C20.7503 285.54 8.09031 255.38 2.76031 222.66C-6.11969 168.15 6.56031 118.75 39.9503 75.07C70.8203 34.69 112.09 10.86 162.17 2.3C167.72 1.35 173.32 0.76 178.9 0C187.57 0 196.23 0 204.9 0C214.88 1.64 225.06 2.51 234.81 5.05C310.57 24.81 358.82 72.71 378.67 148.37C390.02 191.62 382.48 233.55 366.34 274.38C350.02 315.68 327.12 353.26 301.29 389.15C271.65 430.32 238.59 468.61 202.76 504.51C200.2 507.07 197.52 509.51 194.89 512H188.89H188.91ZM192.04 493.35C194.02 491.01 195.22 489.4 196.61 487.97C228 455.66 257.34 421.59 283.97 385.23C311.8 347.24 336.69 307.53 353.37 263.19C365.83 230.07 371.42 196.27 365.15 160.82C351 80.82 281.54 19.33 200.32 16.21C149.33 14.25 104.69 30.63 68.5603 66.81C25.9303 109.5 9.04032 161.31 18.7703 221.11C23.9903 253.19 37.0003 282.59 52.3203 310.96C80.9903 364.05 117.69 411.37 157.71 456.24C168.67 468.52 180.06 480.42 192.05 493.35H192.04Z" fill="black"/>
<path d="M192.26 279.97C143.29 280 103.97 240.72 103.93 191.72C103.89 143.34 143.52 104 192.3 104.01C240.21 104.01 279.81 143.58 279.9 191.52C279.99 240.25 240.67 279.93 192.26 279.97ZM191.91 120.01C151.98 120.14 119.91 152.31 119.92 192.24C119.92 231.88 152.48 264.1 192.4 263.99C231.77 263.88 264.12 231.19 263.9 191.74C263.68 152.08 231.36 119.88 191.91 120.01Z" fill="black"/>
</g>
<defs>
<clipPath id="clip0_1745_76">
<rect width="384.12" height="512" fill="white"/>
</clipPath>
</defs>
</svg>
