<svg width="509" height="547" viewBox="0 0 509 547" fill="none" xmlns="http://www.w3.org/2000/svg">
<g clip-path="url(#clip0_1745_86)">
<path d="M254.29 0.000106732C184.1 -0.0898933 126.28 56.7501 125.24 126.87C124.13 201.95 177.7 257.41 251.86 257.94C326.2 258.48 383.05 203.55 383.35 130.9C383.65 58.7801 325.78 0.0901067 254.29 0.000106732ZM254.88 229.49C198.22 229.93 154.88 187.71 154.15 131.36C153.4 73.5901 197.33 29.1201 254.96 29.3001C309.2 29.4801 354.49 75.2501 354.4 129.8C354.3 186.11 311.45 229.05 254.88 229.49Z" fill="#FB7361"/>
<path d="M508.2 509.97L508.42 546.09H478.46V511.41L478.54 511.36C478.53 505.96 478.51 500.56 478.45 495.16C477.56 416.22 437.3 375.14 359.05 374.52C289.43 373.96 219.81 374 150.2 374.5C70.2202 375.08 31.1202 414.65 31.0002 493.96C31.0002 504.31 30.9802 511.69 30.6202 517.39V546.09H0.0602142V501.81C-2.09979 401.75 55.9302 343.69 152.58 345.37C220.95 346.55 289.39 346.89 357.75 345.27C443.9 343.23 514.32 396.27 508.2 509.97Z" fill="#FB7361"/>
</g>
<defs>
<clipPath id="clip0_1745_86">
<rect width="508.57" height="546.09" fill="white"/>
</clipPath>
</defs>
</svg>
